<svg xmlns="http://www.w3.org/2000/svg" width="42.8" height="41.685" viewBox="0 0 42.8 41.685"><defs><style>.a{opacity:0.3;}.b{fill:none;stroke:#cf9775;stroke-miterlimit:10;stroke-width:3px;}</style></defs><g class="a" transform="translate(-213.3 -681.315)"><path class="b" d="M15,13.125A1.875,1.875,0,0,1,13.125,15H1.875A1.875,1.875,0,0,1,0,13.125V1.875A1.875,1.875,0,0,1,1.875,0h11.25A1.875,1.875,0,0,1,15,1.875Z" transform="translate(239.6 706.5)"/><path class="b" d="M15,1.875v11.25A1.875,1.875,0,0,1,13.125,15H1.875A1.875,1.875,0,0,1,0,13.125V1.875A1.875,1.875,0,0,1,1.875,0h11.25A1.875,1.875,0,0,1,15,1.875Z" transform="translate(214.8 706.5)"/><path class="b" d="M0,13.125V1.875A1.875,1.875,0,0,1,1.875,0h11.25A1.875,1.875,0,0,1,15,1.875v11.25A1.875,1.875,0,0,1,13.125,15H1.875A1.875,1.875,0,0,1,0,13.125Z" transform="translate(227.2 682.815)"/></g></svg>